<svg id="chat" xmlns="http://www.w3.org/2000/svg" width="24" height="24.052" viewBox="0 0 24 24.052">
  <path id="Path_41" data-name="Path 41" d="M12,0A11.659,11.659,0,0,0,0,11.7a11.184,11.184,0,0,0,3.8,8.6,1.08,1.08,0,0,1,.3.7l.1,2.1a1.025,1.025,0,0,0,1.4.9l2.3-1a.637.637,0,0,1,.6,0,13.449,13.449,0,0,0,3.5.5c6.8,0,12-5,12-11.7A11.681,11.681,0,0,0,12,0Zm7.3,9-3.5,5.6a1.829,1.829,0,0,1-2.6.5L10.3,13a.75.75,0,0,0-.9,0L5.6,15.9a.569.569,0,0,1-.8-.8L8.3,9.5A1.93,1.93,0,0,1,11,9l2.8,2.1a.75.75,0,0,0,.9,0l3.8-2.9C19,7.8,19.6,8.5,19.3,9Z" fill="#707070" fill-rule="evenodd"/>
  <path id="Path_42" data-name="Path 42" d="M12,0A11.659,11.659,0,0,0,0,11.7a11.184,11.184,0,0,0,3.8,8.6,1.08,1.08,0,0,1,.3.7l.1,2.1a1.025,1.025,0,0,0,1.4.9l2.3-1a.637.637,0,0,1,.6,0,13.449,13.449,0,0,0,3.5.5c6.8,0,12-5,12-11.7A11.681,11.681,0,0,0,12,0Zm7.3,9-3.5,5.6a1.829,1.829,0,0,1-2.6.5L10.3,13a.75.75,0,0,0-.9,0L5.6,15.9a.569.569,0,0,1-.8-.8L8.3,9.5A1.93,1.93,0,0,1,11,9l2.8,2.1a.75.75,0,0,0,.9,0l3.8-2.9C19,7.8,19.6,8.5,19.3,9Z" fill="#707070"/>
</svg>
