<svg xmlns="http://www.w3.org/2000/svg" width="19.286" height="27" viewBox="0 0 19.286 27">
  <g id="delete" transform="translate(-342.901 -200.862)">
    <path id="Path_4" data-name="Path 4" d="M342.9,205.722v17.569a3.644,3.644,0,0,0,3.645,3.645h12a3.645,3.645,0,0,0,3.645-3.645V205.722Zm17.357,17.463a1.823,1.823,0,0,1-1.822,1.823H346.651a1.823,1.823,0,0,1-1.822-1.823V207.65h15.428Z" transform="translate(0 0.926)" fill="#707070"/>
    <path id="Path_5" data-name="Path 5" d="M347.963,222.462h7.927a1.822,1.822,0,0,0,1.822-1.823V208.961H346.141v11.678A1.822,1.822,0,0,0,347.963,222.462Z" transform="translate(0.618 1.544)" fill="#707070"/>
    <path id="Path_6" data-name="Path 6" d="M358.329,202.786h0l-1.924-1.924h-7.724l-1.923,1.924H342.9v1.929h19.286v-1.929Z" transform="translate(0 0)" fill="#707070"/>
  </g>
</svg>
