<svg width="14" height="13" viewBox="0 0 14 13" fill="none" xmlns="http://www.w3.org/2000/svg">
<path d="M0.685325 13C0.72595 13 0.766575 12.9959 0.8072 12.9898L4.22376 12.3906C4.26439 12.3825 4.30298 12.3642 4.33142 12.3338L12.9419 3.72328C12.9607 3.70449 12.9757 3.68217 12.9859 3.6576C12.996 3.63302 13.0013 3.60668 13.0013 3.58008C13.0013 3.55347 12.996 3.52713 12.9859 3.50256C12.9757 3.47799 12.9607 3.45567 12.9419 3.43688L9.56595 0.0589063C9.52736 0.0203125 9.47657 0 9.42173 0C9.36689 0 9.31611 0.0203125 9.27751 0.0589063L0.667043 8.66937C0.636574 8.69984 0.618293 8.73641 0.610168 8.77703L0.0109495 12.1936C-0.00881072 12.3024 -0.00175014 12.4144 0.0315199 12.5199C0.0647899 12.6253 0.123267 12.7211 0.201887 12.7989C0.33595 12.9289 0.504544 13 0.685325 13ZM2.05439 9.4575L9.42173 2.09219L10.9106 3.58109L3.54329 10.9464L1.73751 11.2653L2.05439 9.4575Z" fill="#34A931"/>
</svg>
