<svg xmlns="http://www.w3.org/2000/svg" width="27.141" height="27.141" viewBox="0 0 27.141 27.141"><defs><style>.a{fill:#707070;}</style></defs><g transform="translate(-1081 -1742)"><path class="a" d="M5.962,5.142A4,4,0,0,0,2,9.179l.031,3.333a1,1,0,0,1-2,.019L0,9.2A6,6,0,0,1,5.943,3.142l15-.141A6,6,0,0,1,27,8.943l.141,15A6,6,0,0,1,21.2,30l-15,.141A6,6,0,0,1,.142,24.2L.11,20.864a1,1,0,1,1,2-.019l.031,3.333A4,4,0,0,0,6.179,28.14l15-.141a4,4,0,0,0,3.962-4.038L25,8.962A4,4,0,0,0,20.962,5Z" transform="translate(1081 1739)"/><path class="a" d="M5.99,21.516a1,1,0,0,1-1.414.013L.371,17.4q-.032-.031-.06-.064a1,1,0,0,1-.171-1.013l0-.01q.015-.037.033-.073a1,1,0,0,1,.186-.259l4.122-4.2a1,1,0,0,1,1.427,1.4L3.476,15.665l14.252-.134a1,1,0,0,1,.019,2l-14.252.134L5.977,20.1A1,1,0,0,1,5.99,21.516Z" transform="translate(1081 1739)"/><path class="a" d="M5.953,7.953a1,1,0,0,0-1,1v1.563a2,2,0,0,1,1.914,3.351l-.736.736H17.953a2,2,0,0,1,0,4H5.932l.936.936A2,2,0,0,1,4.953,22.89v1.063a1,1,0,0,0,1,1h15a1,1,0,0,0,1-1v-15a1,1,0,0,0-1-1Z" transform="translate(1081 1739)"/></g></svg>