<svg xmlns="http://www.w3.org/2000/svg" width="19.026" height="25.082" viewBox="0 0 19.026 25.082"><defs><style>.a,.b{fill:#707070;}.b{fill-rule:evenodd;}</style></defs><g transform="translate(-1247.236 -1743.179)"><path class="a" d="M185.235,5.511l-4.749.045-1.37-1.376-6.786.064-1.344,1.4-4.75.045.027,2.778,19-.179Z" transform="translate(1081 1739)"/><path class="a" d="M178.326,15.187l-5,.047.075,8,5-.047Z" transform="translate(1081 1739)"/><path class="b" d="M167.633,9.843l.157,16.666a2.754,2.754,0,0,0,2.74,2.752l10.857-.1a2.755,2.755,0,0,0,2.688-2.8L183.918,9.69Zm2.665,2.419,11-.1.122,13a1,1,0,0,1-.99,1.009l-9,.085a1,1,0,0,1-1.009-.991Z" transform="translate(1081 1739)"/></g></svg>