<svg xmlns="http://www.w3.org/2000/svg" width="30" height="30" viewBox="0 0 30 30"><defs><style>.a{fill:#707070;}</style></defs><g transform="translate(-1205 -1739)"><path class="a" d="M139,9.545A5.455,5.455,0,1,0,144.455,15,5.453,5.453,0,0,0,139,9.545Zm12.191,4.091A12.264,12.264,0,0,0,140.364,2.809V0h-2.728V2.809a12.264,12.264,0,0,0-10.827,10.827H124v2.727h2.809a12.264,12.264,0,0,0,10.827,10.827V30h2.728V27.191a12.264,12.264,0,0,0,10.827-10.827H154V13.636ZM139,24.545A9.545,9.545,0,1,1,148.545,15,9.538,9.538,0,0,1,139,24.545Z" transform="translate(1081 1739)"/></g></svg>