<svg xmlns="http://www.w3.org/2000/svg" width="25.677" height="25.676" viewBox="0 0 25.677 25.676">
  <path id="gps" d="M-123.833,4.539V2.928A9.8,9.8,0,0,1-132.56-5.8h-1.611a1,1,0,0,1-1-1,1,1,0,0,1,1-1h1.611a9.8,9.8,0,0,1,8.727-8.727v-1.611a1,1,0,0,1,1-1,1,1,0,0,1,1,1v1.611A9.8,9.8,0,0,1-113.1-7.8h1.611a1,1,0,0,1,1,1,1,1,0,0,1-1,1H-113.1a9.8,9.8,0,0,1-8.728,8.726V4.539a1,1,0,0,1-1,1A1,1,0,0,1-123.833,4.539ZM-130.612-6.8A7.787,7.787,0,0,0-122.833.979,7.788,7.788,0,0,0-115.054-6.8a7.789,7.789,0,0,0-7.779-7.78A7.788,7.788,0,0,0-130.612-6.8Zm2.35.88a5.5,5.5,0,0,1,4.548-6.31,5.5,5.5,0,0,1,6.31,4.548,5.5,5.5,0,0,1-4.548,6.31,5.541,5.541,0,0,1-.888.072A5.5,5.5,0,0,1-128.262-5.918Z" transform="translate(135.671 19.638)" fill="#5e5e5e" stroke="rgba(0,0,0,0)" stroke-miterlimit="10" stroke-width="1"/>
</svg>
