<svg width="227" height="242" viewBox="0 0 227 242" fill="none" xmlns="http://www.w3.org/2000/svg">
<path d="M114.339 186.959C114.299 185.496 114.956 184.838 116.903 183.131C119.126 181.231 122.136 178.6 122.072 173.543C122.009 168.486 118.849 165.98 116.597 164.12C114.552 162.485 113.894 161.829 113.905 160.38C113.915 158.932 114.521 158.259 116.469 156.552C118.691 154.652 121.701 152.022 121.638 146.965C121.574 141.908 118.447 139.383 116.162 137.541C114.118 135.907 113.46 135.25 113.47 133.802C113.43 132.339 114.086 131.681 116.034 129.974C118.257 128.073 121.266 125.443 121.203 120.386C121.107 115.347 117.98 112.822 115.727 110.963C113.683 109.328 113.025 108.671 113.035 107.223C112.995 105.76 113.652 105.102 115.599 103.395C117.822 101.495 120.832 98.8645 120.768 93.8075C120.705 88.7505 117.577 86.226 115.292 84.3843C113.248 82.7495 112.59 82.0928 112.6 80.6444C112.56 79.1814 113.217 78.5234 115.164 76.8167C117.387 74.9161 120.397 72.2859 120.333 67.2289C120.27 62.1719 117.143 59.6474 114.857 57.8057C112.813 56.171 112.155 55.5142 112.165 54.0658C112.125 52.6028 112.782 51.9448 114.729 50.2381C116.952 48.3375 119.962 45.7073 119.899 40.6503C119.868 38.5878 118.174 36.9727 116.112 37.003C114.049 37.0333 112.434 38.7272 112.465 40.7897C112.505 42.2528 111.848 42.9107 109.901 44.6175C107.678 46.5181 104.668 49.1482 104.731 54.2052C104.795 59.2622 107.922 61.7868 110.207 63.6285C112.252 65.2632 112.91 65.92 112.899 67.3683C112.94 68.8314 112.283 69.4893 110.335 71.1961C108.113 73.0967 105.103 75.7268 105.166 80.7838C105.23 85.8408 108.39 88.3475 110.642 90.2071C112.686 91.8418 113.344 92.4986 113.334 93.9469C113.374 95.41 112.718 96.0679 110.77 97.7747C108.547 99.6753 105.537 102.305 105.601 107.362C105.665 112.419 108.792 114.944 111.077 116.786C113.121 118.42 113.779 119.077 113.769 120.526C113.809 121.989 113.152 122.647 111.205 124.353C108.982 126.254 105.972 128.884 106.036 133.941C106.099 138.998 109.227 141.523 111.512 143.364C113.556 144.999 114.214 145.656 114.204 147.104C114.244 148.567 113.587 149.225 111.64 150.932C109.417 152.832 106.407 155.463 106.471 160.52C106.534 165.577 109.661 168.101 111.947 169.943C113.991 171.578 114.649 172.234 114.639 173.683C114.628 175.131 114.022 175.804 112.075 177.511C109.852 179.411 106.842 182.041 106.905 187.098C106.969 192.155 110.096 194.68 112.381 196.522C114.426 198.156 115.084 198.813 115.073 200.261C115.104 202.324 116.797 203.939 118.86 203.909C119.492 203.901 120.085 203.744 120.607 203.458C121.78 202.813 122.58 201.567 122.558 200.137C122.494 195.08 119.367 192.555 117.082 190.713C115.038 189.079 114.38 188.422 114.339 186.959Z" fill="#1976D2"/>
<path d="M137.087 28.1485C135.241 28.187 133.358 28.5432 131.534 29.1634C127.054 23.0965 119.863 19.1989 111.746 19.3316C103.662 19.4463 96.5673 23.6001 92.3164 29.8402C90.4805 29.2792 88.6217 28.9853 86.7433 29.0418C75.932 29.2127 66.2596 39.4083 59.4829 57.7296C53.1123 74.9366 49.8517 97.648 50.2547 121.698C50.6577 145.748 54.6796 168.276 61.6488 185.28C69.0428 203.367 79.0788 213.212 89.8901 213.041C91.7359 213.002 93.6194 212.646 95.4426 212.026C99.9226 218.093 107.114 221.99 115.231 221.858C119.273 221.8 123.059 220.738 126.383 218.911C129.708 217.084 132.569 214.493 134.711 211.364C136.547 211.925 138.406 212.219 140.284 212.162C143.261 212.096 146.143 211.319 148.913 209.796C154.062 206.966 158.782 201.657 162.862 194.025C168.542 183.436 172.751 168.859 175.006 151.962C175.294 149.937 173.839 148.063 171.814 147.775C169.789 147.488 167.915 148.942 167.628 150.967C163.443 182.419 152.119 204.512 140.145 204.728C139.895 204.738 139.628 204.715 139.379 204.725C141.663 199.693 143.406 194.449 144.847 189.117C146.319 183.767 147.457 178.348 148.392 172.869C149.36 167.372 150.093 161.835 150.66 156.304C151.239 150.64 151.651 144.982 151.879 139.297C152.143 133.679 152.223 128.033 152.17 122.377C152.113 116.637 151.908 110.937 151.551 105.192C151.198 99.5306 150.711 93.8576 149.992 88.227C149.324 82.611 148.49 77.0014 147.425 71.4342C146.378 65.8995 145.131 60.3892 143.621 54.9392C142.129 49.5217 140.308 44.2002 138.077 39.0611C137.566 37.8993 137.055 36.7375 136.461 35.579C139.893 35.2624 143.101 36.8518 145.713 38.9804C149.254 41.8716 151.935 45.745 154.152 49.703C155.779 52.5855 157.195 55.626 158.464 58.7056C165.05 74.8594 168.888 96.5124 169.288 119.631C169.319 121.693 171.012 123.308 173.075 123.278C175.137 123.248 176.753 121.554 176.722 119.491C176.319 95.4411 172.279 72.8805 165.328 55.9088C157.934 37.8226 147.898 27.9776 137.087 28.1485ZM79.5909 169.903C80.6383 175.438 81.8846 180.948 83.4094 186.348C84.8984 191.682 86.6693 196.989 88.8965 202.045C89.4077 203.207 89.9188 204.369 90.5131 205.527C90.2639 205.537 90.0146 205.547 89.7327 205.574C82.2987 205.714 74.5644 197.277 68.4955 182.451C61.9089 166.297 58.0382 144.662 57.6382 121.544C57.2382 98.4258 60.3535 76.6854 66.4062 60.2896C70.6522 48.7905 76.0081 41.0096 81.6134 37.929C83.3407 36.9797 85.102 36.4785 86.8322 36.4611C87.0814 36.4514 87.3486 36.4743 87.5979 36.4646C85.3285 41.4459 83.5853 46.6897 82.1597 51.9711C80.7048 57.3534 79.5349 62.7912 78.5671 68.2878C77.6319 73.7664 76.8807 79.2712 76.2957 84.7695C75.7172 90.434 75.2902 96.1425 75.062 101.827C74.8158 107.478 74.7359 113.123 74.7716 118.747C74.8284 124.487 75.0188 130.238 75.408 135.965C75.7647 141.709 76.2875 147.447 76.9764 153.179C77.7453 158.824 78.5614 164.401 79.5909 169.903ZM88.3895 57.6703L90.5198 184.307C88.2594 176.257 86.6426 168.065 85.3907 159.842C84.1714 151.601 83.3349 143.362 82.8455 135.059C82.3497 126.591 82.1683 118.077 82.3045 109.6C82.4619 101.239 82.9338 92.8328 83.8422 84.5259C84.6772 76.4715 85.913 68.4514 87.7011 60.5097C87.9474 59.5681 88.1432 58.6118 88.3895 57.6703ZM136.538 57.2618C138.745 65.2145 140.326 73.3414 141.56 81.5316C142.818 89.9207 143.629 98.3438 144.125 106.812C144.632 115.147 144.774 123.513 144.617 131.874C144.453 140.069 143.972 148.226 143.14 156.364C142.29 164.469 141.075 172.604 139.287 180.546C139.059 181.52 138.848 182.527 138.587 183.519L136.455 57.265C136.467 57.1314 136.446 57.0157 136.457 56.8821C136.478 56.9978 136.517 57.1461 136.538 57.2618ZM128.747 43.0855L131.393 197.529C131.496 204.432 127.168 210.842 120.724 213.323C114.656 215.639 107.641 214.148 103.068 209.532C100.055 206.521 98.2788 202.363 98.2117 198.071L95.5835 43.6599C95.4844 37.6889 98.725 32.0041 103.868 29.008C108.8 26.1699 115.02 26.0611 120.018 28.7459C122.907 30.2978 125.298 32.7179 126.842 35.6037C128.063 37.9028 128.712 40.4739 128.747 43.0855Z" fill="#1976D2"/>
<path d="M175.019 132.605C173.799 131.62 172.047 131.522 170.714 132.34C169.382 133.157 168.728 134.747 169.053 136.265C169.361 137.751 170.605 138.935 172.128 139.158C173.702 139.397 175.251 138.587 175.98 137.211C176.818 135.647 176.375 133.684 175.019 132.605Z" fill="#1976D2"/>
</svg>
