<?xml version="1.0" encoding="utf-8"?>
<!-- Generator: Adobe Illustrator 25.1.0, SVG Export Plug-In . SVG Version: 6.00 Build 0)  -->
<svg version="1.1" id="Warstwa_1" xmlns="http://www.w3.org/2000/svg" xmlns:xlink="http://www.w3.org/1999/xlink" x="0px" y="0px"
	 viewBox="0 0 125 44" style="enable-background:new 0 0 125 44;" xml:space="preserve">
<style type="text/css">
	.st0{fill:#707070;}
	.st1{fill:#FFFFFF;}
	.st2{fill:#1976D2;}
</style>
<path d="M17.4,9.4c0,1.7-0.3,3.1-0.9,4.4c-0.6,1.2-1.4,2.2-2.5,2.9c-1.1,0.6-2.3,1-3.7,1c-1.4,0-2.6-0.4-3.7-1
	C5.6,16,4.7,15,4.2,13.8c-0.6-1.2-0.9-2.7-0.9-4.3V8.6C3.2,7,3.5,5.6,4.1,4.3s1.4-2.2,2.5-2.9c1.1-0.6,2.3-1,3.7-1
	c1.4,0,2.6,0.4,3.7,1c1.1,0.6,1.9,1.7,2.5,2.9c0.6,1.2,0.9,2.7,0.9,4.4V9.4z M13.9,8.6c0-1.8-0.3-3.1-0.9-4
	c-0.6-0.9-1.5-1.4-2.7-1.4c-1.2,0-2,0.5-2.7,1.4s-0.9,2.2-0.9,4v0.8c0,1.7,0.3,3.1,0.9,4c0.6,0.9,1.5,1.4,2.7,1.4
	c1.2,0,2-0.5,2.6-1.4c0.6-0.9,0.9-2.2,0.9-4L13.9,8.6L13.9,8.6z"/>
<path d="M23.7,1.9V5h2.1v2.4h-2.1v6.2c0,0.5,0.1,0.8,0.2,1c0.2,0.2,0.5,0.3,1,0.3c0.4,0-0.3,2.8-1,2.8c-2.3,0-3.5-1.2-3.6-3.5V7.4
	h-1.8V5h1.8V1.9H23.7z"/>
<path d="M38.3,12.9l1.6-8h3.2L40,17.4h-2.8l-2.3-7.9l-2.3,7.9h-2.8L26.6,5h3.2l1.6,7.9L33.7,5h2.4L38.3,12.9z"/>
<path d="M44.8,1.7c0-0.5,0.2-0.9,0.5-1.2C45.6,0.1,46.1,0,46.6,0c0.6,0,1,0.2,1.3,0.5c0.4,0.3,0.5,0.7,0.5,1.2
	c0,0.5-0.2,0.9-0.5,1.2c-0.4,0.3-0.8,0.5-1.3,0.5c-0.6,0-1-0.2-1.3-0.5C45,2.7,44.8,2.2,44.8,1.7z M48.3,17.4H45V5h3.3V17.4z"/>
<path d="M56.7,17.7c-1.8,0-3.3-0.6-4.4-1.7c-1.1-1.1-1.7-2.6-1.7-4.5v-0.3c0-1.2,0.2-2.4,0.7-3.4c0.5-1,1.2-1.8,2-2.3
	c0.9-0.5,1.9-0.8,3-0.8c1.7,0,3,0.5,4,1.6c1,1.1,1.5,2.6,1.5,4.6v1.4h-7.8c0.1,0.8,0.4,1.5,1,1.9c0.5,0.5,1.2,0.7,2,0.7
	c1.3,0,2.3-0.5,3-1.4l1.6,1.8c-0.5,0.7-1.2,1.2-2,1.7C58.8,17.4,57.7,17.7,56.7,17.7z M56.3,7.4c-0.6,0-1.2,0.2-1.6,0.6
	C54.3,8.5,54.1,9.1,54,10h4.6V9.7c0-0.8-0.2-1.3-0.6-1.7C57.6,7.6,57,7.4,56.3,7.4z"/>
<path d="M70.6,8.1C70.1,8,69.8,8,69.4,8c-1.2,0-2,0.4-2.5,1.3v8.2h-3.3V5h3.1l0.1,1.5c0.6-1.1,1.6-1.7,2.8-1.7
	c0.4,0,0.7,0.1,1.1,0.2L70.6,8.1z"/>
<path d="M79,17.4c-0.2-0.3-0.2-0.6-0.4-1.1c-0.8,0.9-1.8,1.4-3.1,1.4c-1.2,0-2.2-0.4-3-1.1c-0.8-0.7-1.2-1.6-1.2-2.7
	c0-1.3,0.5-2.4,1.5-3.1c1-0.7,2.4-1.1,4.2-1.1h1.5V9.1c0-0.6-0.2-1.1-0.5-1.4c-0.3-0.4-0.8-0.5-1.4-0.5c-0.6,0-1,0.1-1.3,0.4
	C75.2,7.9,75,8.3,75,8.7h-3.3c0-0.7,0.2-1.4,0.6-2c0.5-0.6,1.1-1.1,1.9-1.5c0.8-0.4,1.7-0.5,2.7-0.5c1.5,0,2.8,0.4,3.6,1.2
	c0.9,0.8,1.3,1.8,1.3,3.2v5.4c0,1.2,0.2,2.1,0.5,2.7v0.2L79,17.4L79,17.4z M76.3,15.1c0.5,0,0.9-0.1,1.3-0.4
	c0.4-0.2,0.7-0.5,0.9-0.9v-2.1h-1.2c-1.6,0-2.5,0.6-2.6,1.7v0.2c0,0.4,0.1,0.8,0.4,1C75.4,15,75.8,15.1,76.3,15.1z"/>
<path class="st0" d="M89.1,0.6l4.3,12.2l4.3-12.2h4.5v16.8h-3.5v-4.6l0.4-7.9l-4.5,12.5h-2.3L87.7,4.9l0.4,7.9v4.6h-3.5V0.6H89.1z"
	/>
<path class="st0" d="M110.9,8.2l3.5-7.6h3.7l-5.4,10.7v6.1h-3.5v-6.1l-5.4-10.7h3.7L110.9,8.2z"/>
<path class="st0" d="M121.4,14.1c0.6,0,1,0.2,1.3,0.5c0.4,0.4,0.5,0.8,0.5,1.2c0,0.5-0.2,0.9-0.5,1.2c-0.4,0.3-0.8,0.5-1.3,0.5
	c-0.5,0-1-0.2-1.3-0.5c-0.4-0.3-0.5-0.8-0.5-1.2c0-0.5,0.2-0.9,0.5-1.2C120.4,14.3,120.8,14.1,121.4,14.1z M122.8,12.3H120
	l-0.4-11.6h3.5L122.8,12.3z"/>
<path class="st1" d="M6.8,44c-3.1,0-6.3-2.7-6.6-4.8c-0.2-1.8-0.2-3.8,0.3-5.8C2,26.2,10.7,12.8,21.9,12.8c1.5,0,2.3,0.6,2.8,1.2
	c0.7,0.8,1,2.1,0.8,3.2v0.1v0.1c-0.4,1.4-1.5,2.9-3.5,2.9c-0.2,0-0.3,0-0.5-0.1c-0.6,0.1-2.5,0.8-4.6,2.3c1.5-0.5,2.8-0.8,3.4-0.9
	c0.4-0.1,1.5-0.1,2.2-0.1c1.6,0,3,0.6,3.7,1.5c0.4,0.5,0.6,1.2,0.4,1.8C25.5,30.3,12.1,44,6.8,44z M10.4,29.2
	c-0.8,1.4-1.5,3-1.9,4.7c-0.1,0.6-0.2,1.2-0.2,1.8c1.6-1.2,3.8-3,5.6-5.2c-0.2,0.1-0.4,0.1-0.6,0.1C12.4,30.5,11.2,30.1,10.4,29.2z"
	/>
<path class="st2" d="M6.8,42.2c-2.3,0-4.7-2.1-4.9-3.3c-0.2-1.6-0.1-3.4,0.3-5.2c1.5-7.1,9.8-19.2,19.7-19.2c1.7,0,2,1.5,1.8,2.4
	c-0.1,0.4-0.6,1.6-1.8,1.6c-0.2,0-0.3-0.1-0.4-0.1c-2.6,0-12.6,5.7-14.6,15c-0.3,1.6-0.4,3.3-0.2,5.1c1.8-0.6,8.2-5.1,11.1-10.7
	c-1.1,0.1-2.5,0.4-4,0.7c-0.1,0.1-0.3,0.1-0.4,0.1c-1,0-2.3-1-2.2-1.9c0.2-0.7,8.1-3.2,9.3-3.4c0.3-0.1,1.1-0.1,2-0.1
	c1.5,0,2.6,0.7,2.5,1.2C23.9,29.4,11.1,42.2,6.8,42.2z"/>
<path class="st1" d="M36.4,40.3c-1.8,0-2.5-1.1-2.6-1.5c-0.4-0.6-0.4-1.4,0.1-6.5c-2.2,0.4-4.4,0.8-5.7,0.9c-0.5,0.6-1,1.4-1.5,2.1
	c-0.2,0.4-0.5,0.8-0.8,1.1c-0.6,0.9-1.3,2-3.5,2c-0.6,0-2-0.1-3-1.2c-0.5-0.7-0.8-1.6-0.5-2.5c0.8-3.7,14.5-19.2,15.9-19.8
	c1.3-0.6,3-1,4.3-1c1.8,0,3,0.9,3.3,2.2c0.8,4-0.1,16.7-0.9,20.1c-0.2,1.1-0.6,1.8-1.1,2.3C39.3,39.6,37.6,40.3,36.4,40.3z"/>
<path class="st2" d="M39.8,35.9c-0.1,0.7-0.4,1.2-0.6,1.4c-0.7,0.6-1.9,1.2-2.8,1.2c-0.4,0-0.9-0.1-1.1-0.5
	c-0.3-0.5,0.5-6.7,0.5-7.9c-3.1,0.7-7.4,1.3-8.7,1.5c-1.1,1.2-1.9,2.5-2.8,3.8c-0.6,0.8-0.9,1.2-2,1.2c-0.9,0-2-0.4-1.8-1.6
	c0.7-3.2,14-18.1,14.9-18.5c1.2-0.5,2.6-0.8,3.6-0.8c0.9,0,1.5,0.4,1.6,0.8C41.3,20,40.5,32.4,39.8,35.9z M30.1,27.8
	c2.8-0.8,4.8-1.2,5.9-1.3c0.2-1.8,0.9-6.4,0.6-6.4C36.4,20,33,24.1,30.1,27.8z"/>
<path class="st1" d="M66.7,39.7c-2,0-4.3-1.1-4.6-3.7c-0.1-0.5,0.1-1.1,0.2-1.5c0.4-1.8,2.2-7.2,4.2-12.9c-1.3,0.1-2.9,0.2-3.4,0.2
	c-2.9,0.2-8,1.5-11.7,3c2.6,0.6,5.5,1.5,6.4,2.1c0.9,0.6,2.5,2.9,2,5.2c-0.2,1.1-0.9,2.1-1.9,2.7c-1.7,1.1-9.1,4-11.1,4
	c-1.5,0-3.6-0.8-4.6-2c-0.5-0.6-0.7-1.4-0.5-2.1c0.1-0.5,0.4-1.1,0.9-1.5c0.7-0.7,2-1.1,4.4-1.8c-2.6-0.6-5-1.5-6.1-3.2
	c-0.7-1.2-0.5-2.7-0.4-3.4c0.3-1.2,0.9-3,2.3-4c2.4-1.7,11.9-5.4,19.6-6c0.1,0,0.4-0.1,0.9-0.1c2.6-0.4,8.9-1.4,14.2-1.4
	c1.2,0,2.8,0,4.6,0.2c1.1,0.1,2,0.6,2.7,1.4c0.5,0.7,0.7,1.6,0.5,2.5c-0.3,1.2-1.2,2.1-2.3,2.4c-0.5,0.2-1.1,0.3-1.5,0.3l-0.3,0.1
	c-1.6,0.2-3.2,0.4-4.6,0.5c0,0-1.2,0.1-1.2,0.1c-1.1,2.8-3.9,12.3-4.4,14.1c-0.6,2.4-0.9,2.8-0.9,3C69.4,39.2,67.9,39.7,66.7,39.7z"
	/>
<path class="st2" d="M83.7,17c-0.1,0.6-0.7,1-1.2,1.1c-0.5,0.2-1,0.2-1.5,0.3c-1.9,0.2-3.8,0.4-5.7,0.6c-0.6,0.1-1.1,0.1-1.2,0.1
	c-0.5,0.6-4.4,13.7-4.9,15.2c-0.4,1.4-0.7,2.5-0.8,2.7c-0.2,0.4-0.9,0.8-1.8,0.8c-1,0-2.7-0.4-2.8-2.1c-0.1-0.2,0.1-0.6,0.1-0.9
	c0.5-2.5,4.2-12.8,5.1-15.2c-0.3,0-0.6,0.1-0.9,0.1c-0.2,0-4.2,0.4-5.2,0.4c-4.5,0.2-14.4,3.4-16.9,5.3c0.2,0.1,0.7,0.2,1.3,0.4
	c1.7,0.4,8.3,1.9,9.3,2.6c0.5,0.4,1.6,2,1.3,3.4c-0.1,0.5-0.4,1.1-1.1,1.5c-1.5,1-8.5,3.8-10.1,3.8c-1.4,0-3.7-1.1-3.5-2
	c0.1-0.2,0.2-0.4,0.4-0.6c1.2-1.2,9.9-2.5,10.4-3.4C54,31,54,31.1,53.9,31c-0.2-0.1-0.5-0.1-0.8-0.2c-2.7-0.8-9.3-1.4-10.8-3.7
	c-0.3-0.5-0.2-1.3-0.1-2c0.2-0.9,0.7-2.2,1.6-3c2.2-1.5,11.5-5.1,18.7-5.7c0.8-0.1,8.7-1.5,15-1.5c1.4,0,2.8,0.1,4.4,0.2
	C82.9,15.3,83.9,16,83.7,17z"/>
<path class="st1" d="M80.5,40.2c-1.5,0-2.8-0.9-3.3-2.4c-0.6-1.8,0.1-6,0.5-7.7c0.2-1.3,0.6-2.7,1.1-3.9c0.7-1.9,1.7-4.2,2.6-6.1
	c1.7-3.4,2.5-4.1,3.4-4.4c5.1-1.2,10.5-2,14.7-2c1.6,0,3.9,0.1,5.4,0.7c5,2,5.2,4.7,4.9,6.2c-1,4.6-11.3,8.7-17.3,10.7
	c3.1,2.4,2.8,3.7,2.7,4.3c-0.4,1.9-3,3-4.6,3c-1.6,0-2.7-0.8-3.5-1.4L86.8,37c-0.4-0.2-0.6-0.5-1-0.8c-0.4-0.3-0.8-0.6-1.2-0.9
	c0,0.1,0,0.2-0.1,0.3c-0.1,0.6-0.2,1.1-0.2,1.5v0.1C83.9,39,82.3,40.2,80.5,40.2z M88.7,21.9c-0.5,1-1.2,2.4-1.7,3.8
	c3.6-1.1,8.1-3.1,11.4-4.8C95.3,20.8,91.5,21.4,88.7,21.9z"/>
<path class="st2" d="M88.3,30.7c1.6,0.9,5.4,3.2,5.1,4.5c-0.2,0.8-1.7,1.6-2.9,1.6c-1.2,0-1.9-0.7-2.8-1.3c-1.5-1.1-2.9-2.2-4.5-3.1
	c-0.3,1.4-0.5,3.5-0.6,4.4c-0.2,0.9-1.1,1.6-2,1.6c-0.7,0-1.4-0.4-1.6-1.2c-0.4-0.9-0.1-4,0.5-6.8c0.2-1.3,0.6-2.5,1-3.7
	c1.3-3.5,3.9-9.2,4.7-9.4c5.6-1.4,10.7-1.9,14.3-1.9c2.2,0,3.9,0.2,4.8,0.6c1.9,0.8,4.2,2.2,3.8,4.2C107.1,24.7,92.3,29.6,88.3,30.7
	z M98.9,19c-3.6,0-8.3,0.6-11.4,1.2c-1.1,1.9-2.6,5.4-3.3,7.9c5.2-0.9,17.1-6.4,19.1-8.4C102.8,19.3,101.2,19,98.9,19z"/>
<path class="st1" d="M106.3,39.6c-3.3,0-5.2-1.8-5.7-3.5V36c-0.1-0.4-0.5-2-0.1-4.4c1.3-6,7.6-12.5,13.9-14.5h0.1
	c0.7-0.2,1.3-0.3,2.1-0.3c1.2-0.8,2.5-0.9,3.3-0.9c0.9,0,2.3,0.3,3.3,1.2c1.5,1.4,2,3.4,1.5,6.2c-0.6,3-2.5,6.4-5.1,9.4
	C116.8,36.1,110.7,39.6,106.3,39.6z M116.9,23.2c-0.5,0.3-1.1,0.6-1.6,0.9c-3.2,2.1-6.5,6-7.3,8.8c2-0.6,4.4-2.7,6-4.4
	C115.3,26.6,116.4,24.6,116.9,23.2z"/>
<path class="st2" d="M118.4,31.6c-2.5,2.8-8.2,6.3-12.1,6.3c-2.7,0-3.7-1.5-4-2.4c-0.1-0.4-0.4-1.7,0-3.5
	c1.2-5.4,6.9-11.3,12.7-13.1c0.8-0.2,1.5-0.3,2.3-0.3c0.7-0.8,1.9-0.9,2.7-0.9c0.7,0,1.6,0.3,2.2,0.8c1.2,1.1,1.2,3,0.9,4.5
	C122.5,25.6,120.8,28.8,118.4,31.6z M118.4,21.1c-0.2-0.1-0.7-0.2-0.9-0.2c-0.9,0.5-1.9,1-3.2,1.8c-3.5,2.2-7.5,6.9-8.3,10.4
	c-0.2,0.8-0.4,1.8,0.8,1.8c3,0,6.4-3,8.3-5.2c1.9-2.3,3.2-4.9,3.6-6.6C118.8,22.3,118.9,21.4,118.4,21.1z"/>
</svg>
