<svg width="35" height="50" viewBox="0 0 35 50" fill="none" xmlns="http://www.w3.org/2000/svg">
<path d="M35 17.6471C35 7.91176 27.1542 0 17.5 0C7.84583 0 0 7.91176 0 17.6471C0 30.8824 17.5 50 17.5 50C17.5 50 35 30.8824 35 17.6471Z" fill="#1976D2"/>
<path d="M13.7655 19.9943L16.2816 17.5005L10.0402 11.3231C8.65326 12.6978 8.65326 14.9273 10.0402 16.3108L13.7655 19.9943ZM19.7934 18.3993C21.1537 19.025 23.0652 18.5844 24.4789 17.1832C26.177 15.5001 26.506 13.0855 25.199 11.7902C23.901 10.5036 21.4649 10.8208 19.7578 12.5039C18.3442 13.9051 17.8997 15.7997 18.5309 17.148L9.85352 25.7487L11.1071 26.9912L17.2329 20.9372L23.3497 27L24.6033 25.7575L18.4865 19.6947L19.7934 18.3993Z" fill="white"/>
</svg>
