<svg width="35" height="50" viewBox="0 0 35 50" fill="none" xmlns="http://www.w3.org/2000/svg">
<path d="M17.5 48.4935C17.0273 47.9515 16.3509 47.1614 15.5386 46.1717C13.9113 44.1888 11.7431 41.41 9.57693 38.2245C7.40884 35.0361 5.2552 31.4583 3.64662 27.8762C2.03248 24.2817 1 20.7542 1 17.6471C1 8.45614 8.40599 1 17.5 1C26.594 1 34 8.45614 34 17.6471C34 20.7542 32.9675 24.2817 31.3534 27.8762C29.7448 31.4583 27.5912 35.0361 25.4231 38.2245C23.2569 41.41 21.0887 44.1888 19.4614 46.1717C18.6491 47.1614 17.9727 47.9515 17.5 48.4935Z" fill="white" stroke="#1976D2" stroke-width="2"/>
<path d="M13.7655 19.9943L16.2816 17.5005L10.0402 11.3231C8.65326 12.6978 8.65326 14.9273 10.0402 16.3108L13.7655 19.9943ZM19.7934 18.3993C21.1537 19.025 23.0652 18.5844 24.4789 17.1832C26.177 15.5001 26.506 13.0855 25.199 11.7902C23.901 10.5036 21.4649 10.8208 19.7578 12.5039C18.3442 13.9051 17.8997 15.7997 18.5309 17.148L9.85352 25.7487L11.1071 26.9912L17.2329 20.9372L23.3497 27L24.6033 25.7575L18.4865 19.6947L19.7934 18.3993Z" fill="#1976D2"/>
</svg>
