<svg width="301" height="176" viewBox="0 0 301 176" fill="none" xmlns="http://www.w3.org/2000/svg">
<path d="M68.1885 100.987H81.4453V115.27H68.1885V139H50.3906V115.27H4.32129L3.80859 104.43L49.8047 32.3594H68.1885V100.987ZM22.4854 100.987H50.3906V56.4561L49.0723 58.7998L22.4854 100.987ZM283.696 100.987H296.953V115.27H283.696V139H265.898V115.27H219.829L219.316 104.43L265.312 32.3594H283.696V100.987ZM237.993 100.987H265.898V56.4561L264.58 58.7998L237.993 100.987Z" fill="#1976D2"/>
<path d="M150.852 125.407C150.83 124.59 151.197 124.223 152.284 123.27C153.526 122.208 155.206 120.74 155.171 117.916C155.135 115.092 153.371 113.692 152.113 112.653C150.971 111.74 150.604 111.374 150.61 110.565C150.615 109.756 150.954 109.38 152.041 108.427C153.283 107.366 154.964 105.897 154.928 103.073C154.893 100.249 153.146 98.8389 151.87 97.8104C150.729 96.8975 150.361 96.5308 150.367 95.7219C150.344 94.9049 150.711 94.5375 151.799 93.5843C153.04 92.523 154.721 91.0542 154.685 88.2301C154.632 85.416 152.885 84.0062 151.627 82.9677C150.486 82.0548 150.118 81.688 150.124 80.8792C150.102 80.0622 150.468 79.6947 151.556 78.7416C152.797 77.6802 154.478 76.2114 154.443 73.3874C154.407 70.5633 152.661 69.1534 151.385 68.125C150.243 67.2121 149.876 66.8453 149.881 66.0365C149.859 65.2194 150.226 64.852 151.313 63.8989C152.554 62.8375 154.235 61.3687 154.2 58.5446C154.164 55.7206 152.418 54.3107 151.142 53.2822C150 52.3693 149.633 52.0025 149.638 51.1937C149.616 50.3767 149.983 50.0093 151.07 49.0561C152.312 47.9948 153.992 46.5259 153.957 43.7019C153.94 42.55 152.994 41.6481 151.842 41.6651C150.69 41.682 149.789 42.6279 149.805 43.7797C149.828 44.5967 149.461 44.9642 148.374 45.9173C147.132 46.9787 145.451 48.4475 145.487 51.2716C145.522 54.0956 147.269 55.5055 148.545 56.534C149.687 57.4469 150.054 57.8136 150.048 58.6225C150.071 59.4395 149.704 59.8069 148.616 60.7601C147.375 61.8214 145.694 63.2902 145.73 66.1143C145.765 68.9384 147.53 70.3382 148.788 71.3767C149.929 72.2896 150.297 72.6564 150.291 73.4652C150.314 74.2822 149.947 74.6497 148.859 75.6028C147.618 76.6642 145.937 78.133 145.973 80.9571C146.008 83.7811 147.754 85.191 149.031 86.2195C150.172 87.1324 150.54 87.4991 150.534 88.3079C150.556 89.125 150.19 89.4924 149.102 90.4456C147.861 91.5069 146.18 92.9757 146.215 95.7998C146.251 98.6239 147.997 100.034 149.273 101.062C150.415 101.975 150.782 102.342 150.777 103.151C150.799 103.968 150.432 104.335 149.345 105.288C148.104 106.35 146.423 107.818 146.458 110.643C146.494 113.467 148.24 114.876 149.516 115.905C150.658 116.818 151.025 117.185 151.019 117.993C151.014 118.802 150.675 119.178 149.588 120.131C148.346 121.192 146.665 122.661 146.701 125.485C146.736 128.309 148.483 129.719 149.759 130.748C150.901 131.661 151.268 132.027 151.262 132.836C151.279 133.988 152.225 134.89 153.377 134.873C153.73 134.869 154.061 134.781 154.352 134.621C155.008 134.261 155.454 133.565 155.442 132.767C155.406 129.942 153.66 128.533 152.384 127.504C151.242 126.591 150.875 126.224 150.852 125.407Z" fill="#1976D2"/>
<path d="M163.556 36.7198C162.525 36.7413 161.473 36.9402 160.455 37.2865C157.953 33.8985 153.937 31.7219 149.404 31.796C144.89 31.8601 140.928 34.1798 138.554 37.6645C137.529 37.3512 136.491 37.1871 135.442 37.2186C129.404 37.3141 124.002 43.0078 120.218 53.2393C116.66 62.8485 114.84 75.5316 115.065 88.9623C115.29 102.393 117.536 114.974 121.428 124.47C125.557 134.57 131.161 140.068 137.199 139.972C138.23 139.951 139.281 139.752 140.3 139.406C142.801 142.794 146.818 144.97 151.35 144.896C153.608 144.864 155.722 144.271 157.578 143.25C159.435 142.23 161.033 140.783 162.229 139.036C163.254 139.349 164.292 139.513 165.341 139.482C167.004 139.445 168.613 139.011 170.16 138.16C173.036 136.58 175.671 133.615 177.95 129.353C181.122 123.439 183.472 115.299 184.732 105.863C184.892 104.732 184.08 103.686 182.949 103.525C181.818 103.365 180.772 104.177 180.611 105.308C178.274 122.872 171.951 135.209 165.263 135.33C165.124 135.336 164.975 135.323 164.836 135.328C166.111 132.518 167.085 129.59 167.889 126.612C168.712 123.625 169.347 120.598 169.869 117.538C170.409 114.469 170.819 111.377 171.136 108.288C171.459 105.125 171.689 101.965 171.816 98.7906C171.964 95.6527 172.009 92.5002 171.979 89.3414C171.947 86.1361 171.832 82.9526 171.633 79.7446C171.436 76.5829 171.164 73.4149 170.763 70.2704C170.39 67.1342 169.924 64.0016 169.329 60.8926C168.744 57.8017 168.048 54.7245 167.205 51.681C166.372 48.6556 165.354 45.6838 164.109 42.8139C163.823 42.1651 163.538 41.5163 163.206 40.8693C165.123 40.6925 166.914 41.5801 168.373 42.7688C170.351 44.3834 171.847 46.5465 173.086 48.7569C173.994 50.3666 174.785 52.0645 175.493 53.7843C179.172 62.8053 181.315 74.8974 181.538 87.8077C181.555 88.9595 182.501 89.8614 183.653 89.8445C184.805 89.8276 185.707 88.8817 185.69 87.7298C185.465 74.2991 183.209 61.7003 179.327 52.2225C175.198 42.1223 169.593 36.6243 163.556 36.7198ZM131.447 115.882C132.032 118.973 132.728 122.05 133.58 125.066C134.411 128.045 135.4 131.008 136.644 133.832C136.929 134.481 137.215 135.129 137.547 135.776C137.408 135.782 137.268 135.787 137.111 135.803C132.959 135.881 128.64 131.169 125.251 122.89C121.573 113.869 119.411 101.787 119.188 88.8763C118.964 75.966 120.704 63.8251 124.084 54.6689C126.455 48.2473 129.446 43.902 132.577 42.1817C133.541 41.6516 134.525 41.3716 135.491 41.3619C135.63 41.3565 135.78 41.3693 135.919 41.3639C134.651 44.1457 133.678 47.0741 132.882 50.0234C132.069 53.0292 131.416 56.0659 130.876 59.1355C130.353 62.195 129.934 65.2691 129.607 68.3396C129.284 71.5029 129.046 74.6908 128.918 77.8651C128.781 81.0212 128.736 84.1737 128.756 87.3144C128.788 90.5197 128.894 93.7313 129.111 96.9294C129.311 100.137 129.602 103.342 129.987 106.543C130.417 109.695 130.872 112.81 131.447 115.882ZM136.361 53.2061L137.551 123.926C136.288 119.43 135.385 114.856 134.686 110.263C134.005 105.661 133.538 101.06 133.265 96.4239C132.988 91.6946 132.887 86.9399 132.963 82.2062C133.051 77.5371 133.314 72.8425 133.821 68.2036C134.288 63.7056 134.978 59.2268 135.976 54.7918C136.114 54.266 136.223 53.732 136.361 53.2061ZM163.249 52.978C164.482 57.4192 165.365 61.9576 166.054 66.5314C166.757 71.2163 167.209 75.9201 167.486 80.6494C167.769 85.3041 167.849 89.976 167.761 94.6451C167.669 99.2215 167.4 103.777 166.936 108.321C166.461 112.847 165.783 117.391 164.785 121.826C164.657 122.37 164.539 122.932 164.394 123.486L163.203 52.9798C163.209 52.9052 163.198 52.8406 163.204 52.766C163.216 52.8306 163.238 52.9134 163.249 52.978ZM158.899 45.0613L160.376 131.31C160.433 135.165 158.017 138.744 154.418 140.13C151.029 141.423 147.112 140.59 144.558 138.013C142.875 136.331 141.884 134.009 141.846 131.613L140.378 45.3821C140.323 42.0476 142.133 38.873 145.005 37.1998C147.759 35.6149 151.233 35.5541 154.024 37.0534C155.637 37.9201 156.972 39.2716 157.834 40.8831C158.516 42.1671 158.879 43.6029 158.899 45.0613Z" fill="#1976D2"/>
<path d="M184.739 95.0532C184.057 94.5035 183.079 94.4486 182.335 94.9051C181.591 95.3616 181.225 96.2494 181.407 97.0974C181.579 97.9273 182.274 98.588 183.124 98.7129C184.003 98.846 184.869 98.3941 185.276 97.6255C185.743 96.7522 185.496 95.6558 184.739 95.0532Z" fill="#1976D2"/>
</svg>
