<svg xmlns="http://www.w3.org/2000/svg" width="21.176" height="30" viewBox="0 0 21.176 30"><defs><style>.a,.b{fill:#707070;}.b{fill-rule:evenodd;}</style></defs><g transform="translate(-1128 -1739)"><path class="a" d="M59.224,19.066c-.559.823-1.121,1.587-1.637,2.258-.516-.671-1.077-1.435-1.637-2.258a30.315,30.315,0,0,1-2.575-4.483,9.827,9.827,0,0,1-1.023-3.777,5.235,5.235,0,1,1,10.47,0A9.825,9.825,0,0,1,61.8,14.582,30.323,30.323,0,0,1,59.224,19.066Z" transform="translate(1081 1739)"/><path class="b" d="M57.588,0A10.6,10.6,0,0,1,68.176,10.588C68.176,18.529,57.588,30,57.588,30S47,18.529,47,10.588A10.6,10.6,0,0,1,57.588,0Zm0,26.029s-.822-.9-1.948-2.324c-2.435-3.085-6.287-8.64-6.287-12.9a8.235,8.235,0,1,1,16.47,0c0,4.26-3.852,9.815-6.287,12.9C58.41,25.131,57.588,26.029,57.588,26.029Z" transform="translate(1081 1739)"/></g></svg>