<svg id="pin" xmlns="http://www.w3.org/2000/svg" width="19.764" height="28" viewBox="0 0 19.764 28">
  <path id="Path_1" data-name="Path 1" d="M690.393,46.066c-.559.823-1.121,1.587-1.637,2.258-.516-.671-1.077-1.435-1.637-2.258a30.324,30.324,0,0,1-2.575-4.483,9.817,9.817,0,0,1-1.023-3.777,5.235,5.235,0,0,1,10.47,0,9.824,9.824,0,0,1-1.022,3.776A30.3,30.3,0,0,1,690.393,46.066Z" transform="translate(-678.875 -27.782)" fill="#707070"/>
  <path id="Path_2" data-name="Path 2" d="M688.051,27a9.894,9.894,0,0,1,9.882,9.882c0,7.412-9.882,18.118-9.882,18.118s-9.882-10.706-9.882-18.118A9.894,9.894,0,0,1,688.051,27Zm0,24.294s-.767-.84-1.818-2.169c-2.273-2.879-5.868-8.064-5.868-12.04a7.686,7.686,0,0,1,15.372-.007v.007c0,3.976-3.6,9.161-5.868,12.04C688.818,50.456,688.051,51.294,688.051,51.294Z" transform="translate(-678.169 -27)" fill="#707070" fill-rule="evenodd"/>
</svg>
