<svg width="29" height="30" viewBox="0 0 29 30" fill="none" xmlns="http://www.w3.org/2000/svg">
<path d="M9.58937 28.9964C8.88189 28.9922 8.19495 28.7581 7.63212 28.3295L4.63099 26.0967C3.93843 25.5568 3.4789 24.7721 3.34678 23.9039C3.21466 23.0357 3.41999 22.1499 3.92058 21.4283C4.18544 21.0372 4.35377 20.5889 4.41174 20.1201C4.4697 19.6513 4.41566 19.1755 4.25404 18.7317L4.16705 18.4997C4.05451 18.098 3.84883 17.7284 3.56669 17.4211C3.28455 17.1138 2.93392 16.8773 2.54325 16.7309H2.31128C1.4644 16.4461 0.764047 15.8388 0.362301 15.0407C-0.0394443 14.2427 -0.110147 13.3183 0.165548 12.4684L1.3544 8.69891C1.46384 8.26217 1.66532 7.85385 1.94537 7.5013C2.22541 7.14875 2.57755 6.86009 2.9782 6.65467C3.35131 6.46242 3.75955 6.34788 4.17821 6.31798C4.59687 6.28808 5.01724 6.34343 5.41389 6.48069C5.84577 6.62604 6.30661 6.66371 6.75636 6.59044C7.20611 6.51716 7.63116 6.33516 7.99457 6.06024L8.18305 5.91526C8.512 5.65278 8.77786 5.31982 8.96104 4.94093C9.14421 4.56204 9.24002 4.14688 9.24141 3.72603V3.37808C9.23752 2.49098 9.58422 1.63826 10.206 1.00557C10.8279 0.372882 11.6745 0.0114627 12.5615 0H16.2585C16.6901 0.00116303 17.1172 0.0875752 17.5153 0.254274C17.9134 0.420972 18.2746 0.664673 18.5782 0.971379C19.2166 1.62059 19.5712 2.49662 19.5641 3.40707V3.81302C19.5568 4.21281 19.6435 4.60874 19.8172 4.96886C19.991 5.32899 20.247 5.64324 20.5645 5.88626L20.724 6.00225C21.0494 6.24626 21.4289 6.40797 21.8303 6.47361C22.2317 6.53924 22.643 6.50685 23.0292 6.3792L23.5221 6.21972C23.9398 6.08128 24.381 6.02837 24.8195 6.06415C25.2581 6.09993 25.6849 6.22367 26.0746 6.42797C26.4643 6.63228 26.8088 6.91298 27.0877 7.25333C27.3665 7.59368 27.5739 7.9867 27.6976 8.40895L28.843 12.0625C29.108 12.9069 29.0355 13.8211 28.6409 14.6131C28.2462 15.4052 27.5599 16.0136 26.7262 16.3105L26.4363 16.4119C26.0098 16.5516 25.6241 16.7939 25.3132 17.1174C25.0023 17.441 24.7755 17.836 24.653 18.2677C24.5376 18.669 24.5102 19.0906 24.5728 19.5034C24.6353 19.9163 24.7863 20.3108 25.0154 20.6599L25.3924 21.2108C25.8923 21.9364 26.0957 22.8257 25.9609 23.6964C25.8261 24.5671 25.3634 25.3533 24.6675 25.8938L21.7534 28.141C21.4013 28.4102 20.9978 28.6046 20.5678 28.712C20.1378 28.8195 19.6904 28.8378 19.2531 28.7658C18.8157 28.6938 18.3978 28.5331 18.0249 28.2935C17.652 28.0539 17.3321 27.7405 17.0849 27.3726L16.911 27.1261C16.6735 26.7693 16.3495 26.4784 15.9692 26.2806C15.5889 26.0829 15.1647 25.9847 14.7362 25.9953C14.3273 26.0058 13.9267 26.1124 13.5665 26.3063C13.2064 26.5002 12.8969 26.7761 12.663 27.1116L12.3295 27.5901C12.0823 27.9605 11.7617 28.2764 11.3877 28.5183C11.0137 28.7601 10.5941 28.9229 10.1548 28.9964C9.96677 29.0148 9.7774 29.0148 9.58937 28.9964ZM3.48563 13.9473C4.30433 14.2392 5.04307 14.7192 5.64238 15.3488C6.2417 15.9783 6.68486 16.7397 6.9362 17.5718V17.7458C7.24927 18.6108 7.35206 19.5379 7.2361 20.4504C7.12014 21.363 6.78874 22.2349 6.26929 22.9941C6.17759 23.0954 6.12682 23.2272 6.12682 23.3638C6.12682 23.5005 6.17759 23.6322 6.26929 23.7335L9.3864 26.0967C9.42706 26.1287 9.4741 26.1516 9.52433 26.1638C9.57457 26.1761 9.62685 26.1775 9.67766 26.1678C9.72848 26.1582 9.77664 26.1378 9.81893 26.1081C9.86121 26.0783 9.89664 26.0398 9.92283 25.9953L10.2563 25.5168C10.7592 24.7901 11.4308 24.1962 12.2136 23.786C12.9964 23.3758 13.867 23.1615 14.7507 23.1615C15.6345 23.1615 16.5051 23.3758 17.2878 23.786C18.0706 24.1962 18.7422 24.7901 19.2452 25.5168L19.4191 25.7778C19.4815 25.8662 19.5745 25.9282 19.6801 25.9518C19.7285 25.9589 19.7779 25.9562 19.8253 25.9437C19.8726 25.9312 19.9169 25.9093 19.9556 25.8793L22.9422 23.6175C23.0467 23.5346 23.1155 23.4147 23.1344 23.2826C23.1533 23.1504 23.1208 23.0161 23.0437 22.9071L22.6667 22.3562C22.1756 21.64 21.8515 20.8226 21.7185 19.9644C21.5855 19.1062 21.647 18.2291 21.8983 17.3978C22.1531 16.5241 22.614 15.7244 23.2422 15.0659C23.8705 14.4074 24.6476 13.9094 25.5084 13.6138L25.7983 13.5123C25.9192 13.4639 26.016 13.3697 26.0676 13.2501C26.1192 13.1306 26.1214 12.9955 26.0738 12.8744L24.943 9.26434C24.9158 9.20118 24.8761 9.14419 24.8263 9.09684C24.7764 9.04948 24.7175 9.01275 24.653 8.98888C24.6103 8.96723 24.5631 8.95594 24.5153 8.95594C24.4674 8.95594 24.4202 8.96723 24.3775 8.98888L23.8846 9.14836C23.0507 9.42357 22.1625 9.49214 21.2963 9.34819C20.43 9.20424 19.6117 8.85207 18.9117 8.32196L18.8537 8.19148C18.182 7.68277 17.6373 7.02526 17.2625 6.27059C16.8877 5.51593 16.6929 4.68464 16.6935 3.84202V3.39258C16.6961 3.25284 16.6441 3.11759 16.5485 3.01562C16.4651 2.94024 16.3565 2.89886 16.244 2.89964H12.5615C12.5024 2.90332 12.4447 2.91864 12.3916 2.94471C12.3384 2.97077 12.291 3.00707 12.2519 3.05152C12.2128 3.09598 12.1829 3.14771 12.1639 3.20375C12.1449 3.25979 12.1371 3.31903 12.1411 3.37808V3.74053C12.1411 4.60613 11.9425 5.46019 11.5604 6.2369C11.1784 7.01361 10.6231 7.69224 9.93733 8.22047L9.74885 8.36545C9.00905 8.92872 8.14205 9.30136 7.22428 9.45053C6.3065 9.5997 5.36611 9.52082 4.48601 9.22085C4.42016 9.19875 4.34889 9.19875 4.28303 9.22085C4.20121 9.27056 4.13959 9.34758 4.10906 9.43832L2.90571 13.2223C2.86376 13.3512 2.87359 13.4914 2.93312 13.6131C2.99264 13.7349 3.0972 13.8287 3.22467 13.8748L3.48563 13.9473Z" fill="#707070"/>
<path d="M14.5043 19.5726C13.5007 19.5726 12.5196 19.275 11.6851 18.7174C10.8507 18.1598 10.2003 17.3673 9.8162 16.4401C9.43213 15.5129 9.33164 14.4926 9.52744 13.5082C9.72323 12.5239 10.2065 11.6197 10.9162 10.9101C11.6258 10.2004 12.53 9.71713 13.5143 9.52133C14.4987 9.32554 15.519 9.42603 16.4462 9.81009C17.3734 10.1942 18.1659 10.8446 18.7235 11.679C19.2811 12.5135 19.5787 13.4946 19.5787 14.4982C19.5787 15.844 19.044 17.1347 18.0924 18.0863C17.1408 19.0379 15.8501 19.5726 14.5043 19.5726ZM14.5043 12.3235C14.0742 12.3235 13.6537 12.451 13.2961 12.69C12.9385 12.9289 12.6597 13.2686 12.4951 13.666C12.3305 14.0633 12.2874 14.5006 12.3714 14.9225C12.4553 15.3443 12.6624 15.7318 12.9665 16.036C13.2707 16.3401 13.6582 16.5472 14.08 16.6311C14.5019 16.7151 14.9392 16.672 15.3365 16.5074C15.7339 16.3428 16.0736 16.064 16.3125 15.7064C16.5515 15.3488 16.679 14.9283 16.679 14.4982C16.679 13.9214 16.4499 13.3683 16.0421 12.9604C15.6342 12.5526 15.0811 12.3235 14.5043 12.3235Z" fill="#707070"/>
</svg>
