<svg width="125" height="44" viewBox="0 0 125 44" fill="none" xmlns="http://www.w3.org/2000/svg">
<path d="M17.3888 9.39063C17.3888 11.0443 17.096 12.5208 16.5106 13.7611C15.9251 15.0014 15.1054 15.9463 14.0516 16.6551C12.9977 17.3047 11.7096 17.6591 10.363 17.6591C8.95787 17.6591 7.72836 17.3047 6.6745 16.6551C5.62064 16.0054 4.74242 15.0014 4.15694 13.7611C3.57146 12.5208 3.27872 11.1034 3.27872 9.44969V8.62285C3.22017 7.02822 3.51291 5.55171 4.09839 4.31144C4.68387 3.07117 5.50354 2.06714 6.61595 1.41748C7.66982 0.767815 8.89933 0.413452 10.3045 0.413452C11.7096 0.413452 12.9391 0.767815 13.993 1.41748C15.0469 2.06714 15.9251 3.07117 16.5106 4.31144C17.096 5.55171 17.3888 7.02822 17.3888 8.68191V9.39063ZM13.9345 8.62285C13.9345 6.85104 13.6417 5.55171 12.9977 4.60674C12.3537 3.72084 11.4754 3.24835 10.3045 3.24835C9.13352 3.24835 8.2553 3.72084 7.61127 4.60674C6.96724 5.49265 6.6745 6.85104 6.6745 8.56379V9.39063C6.6745 11.1034 6.96724 12.4618 7.61127 13.4067C8.2553 14.3517 9.13352 14.8242 10.3045 14.8242C11.4754 14.8242 12.3537 14.3517 12.9391 13.4658C13.5246 12.5799 13.8759 11.2215 13.8759 9.50875V8.62285H13.9345Z" fill="black"/>
<path d="M23.6534 1.88989V4.96103H25.7612V7.38251H23.6534V13.5839C23.6534 14.0563 23.712 14.3516 23.8876 14.5879C24.0633 14.7651 24.4146 14.8832 24.883 14.8832C25.2342 14.8832 25.5855 14.8832 25.8783 14.8241V17.3637C25.2342 17.5409 24.5902 17.659 23.8876 17.659C21.5457 17.659 20.3748 16.4778 20.3162 14.1154V7.38251H18.5012V4.96103H20.3162V1.88989H23.6534Z" fill="black"/>
<path d="M38.3489 12.8751L39.9883 4.90198H43.1499L39.9883 17.3637H37.2365L34.8946 9.50869L32.5527 17.3637H29.8009L26.6393 4.96104H29.8009L31.4403 12.8751L33.7237 4.96104H36.1241L38.3489 12.8751Z" fill="black"/>
<path d="M44.7892 1.71275C44.7892 1.24027 44.9649 0.826846 45.2576 0.472483C45.5504 0.118121 46.0773 0 46.6042 0C47.1897 0 47.5995 0.177181 47.9508 0.472483C48.3021 0.767785 48.4778 1.18121 48.4778 1.71275C48.4778 2.2443 48.3021 2.65772 47.9508 2.95302C47.5995 3.24832 47.1897 3.4255 46.6042 3.4255C46.0188 3.4255 45.6089 3.24832 45.2576 2.95302C44.9649 2.65772 44.7892 2.2443 44.7892 1.71275ZM48.3021 17.4228H44.9649V4.96107H48.3021V17.4228Z" fill="black"/>
<path d="M56.6745 17.6591C54.8595 17.6591 53.3958 17.0685 52.2249 15.9463C51.1125 14.8242 50.527 13.3477 50.527 11.4577V11.1624C50.527 9.92217 50.7612 8.80002 51.2296 7.79599C51.6979 6.79197 52.4005 6.02418 53.2787 5.49264C54.2155 4.9611 55.2108 4.72485 56.3232 4.72485C58.0211 4.72485 59.3677 5.2564 60.3045 6.31948C61.2998 7.38257 61.7682 8.91814 61.7682 10.9262V12.2846H53.9228C54.0399 13.1114 54.3326 13.7611 54.9181 14.2336C55.445 14.7061 56.1476 14.9423 56.9673 14.9423C58.2553 14.9423 59.2506 14.4698 59.9532 13.5249L61.5925 15.3557C61.1242 16.0645 60.4216 16.596 59.6019 17.0094C58.7822 17.4228 57.7284 17.6591 56.6745 17.6591ZM56.3232 7.38257C55.6792 7.38257 55.1523 7.61881 54.7424 8.03224C54.3326 8.50472 54.0984 9.09532 53.9813 9.98123H58.6066V9.68593C58.6066 8.91814 58.3724 8.3866 58.0211 7.97318C57.5527 7.61881 57.0258 7.38257 56.3232 7.38257Z" fill="black"/>
<path d="M70.6089 8.0913C70.1405 8.03224 69.7892 7.97318 69.438 7.97318C68.2084 7.97318 67.3888 8.3866 66.9789 9.2725V17.4228H63.7003V4.96109H66.8033L66.9204 6.4376C67.5644 5.31546 68.5012 4.72485 69.6722 4.72485C70.0234 4.72485 70.3747 4.78391 70.726 4.90203L70.6089 8.0913Z" fill="black"/>
<path d="M79.0398 17.4228C78.8642 17.1275 78.8056 16.7732 78.6885 16.3007C77.8689 17.1866 76.8736 17.6591 75.5855 17.6591C74.356 17.6591 73.3607 17.3047 72.5995 16.596C71.7799 15.8873 71.4286 15.0014 71.4286 13.9383C71.4286 12.6389 71.897 11.5759 72.8923 10.8671C73.8876 10.1584 75.2928 9.80405 77.1077 9.80405H78.63V9.09532C78.63 8.50472 78.4543 8.03224 78.1616 7.73693C77.8689 7.38257 77.4005 7.20539 76.7565 7.20539C76.171 7.20539 75.7611 7.32351 75.4684 7.61881C75.1757 7.91411 75 8.26848 75 8.74096H71.7213C71.7213 8.03224 71.9555 7.32351 72.3654 6.73291C72.8337 6.1423 73.4192 5.61076 74.2389 5.2564C75.0586 4.90203 75.9368 4.72485 76.9321 4.72485C78.4543 4.72485 79.6839 5.13828 80.5621 5.90606C81.4403 6.67385 81.9087 7.73693 81.9087 9.15438V14.5879C81.9087 15.7691 82.0843 16.6551 82.3771 17.3047V17.4819H79.0398V17.4228ZM76.2881 15.1195C76.7565 15.1195 77.2248 15.0014 77.6347 14.7651C78.0445 14.5289 78.3372 14.2336 78.5714 13.8792V11.753H77.3419C75.7026 11.753 74.8244 12.3436 74.7073 13.4658V13.643C74.7073 14.0564 74.8244 14.4108 75.1171 14.647C75.4099 15.0014 75.8197 15.1195 76.2881 15.1195Z" fill="black"/>
<path d="M89.1101 0.649658L93.3841 12.8161L97.6581 0.649658H102.166V17.4228H98.7119V12.8161L99.0632 4.90201L94.555 17.4228H92.2131L87.7049 4.90201L88.0562 12.8161V17.4228H84.6019V0.649658H89.1101Z" fill="#707070"/>
<path d="M110.89 8.20939L114.344 0.649658H118.091L112.646 11.3396V17.4228H109.133V11.3396L103.689 0.649658H107.436L110.89 8.20939Z" fill="#707070"/>
<path d="M121.429 14.1154C122.014 14.1154 122.424 14.2926 122.775 14.5879C123.126 14.9423 123.302 15.3557 123.302 15.8282C123.302 16.3597 123.126 16.7731 122.775 17.0684C122.424 17.3638 122.014 17.5409 121.429 17.5409C120.902 17.5409 120.433 17.3638 120.082 17.0684C119.731 16.7731 119.555 16.3007 119.555 15.8282C119.555 15.3557 119.731 14.8832 120.082 14.5879C120.433 14.2926 120.843 14.1154 121.429 14.1154ZM122.775 12.2846H120.023L119.614 0.649658H123.126L122.775 12.2846Z" fill="#707070"/>
<path d="M6.79227 44C3.68922 44 0.46908 41.3423 0.17634 39.2161C-0.0578517 37.3853 0.000696287 35.4363 0.46908 33.3692C1.99133 26.1638 10.6564 12.7571 21.8977 12.7571C23.3614 12.7571 24.2396 13.4067 24.6494 13.9973C25.352 14.8242 25.6447 16.0645 25.4105 17.2457V17.3047V17.3638C25.0592 18.7222 23.9468 20.2578 21.9562 20.2578C21.7806 20.2578 21.6635 20.2578 21.4878 20.1987C20.8438 20.2578 18.9703 21.0255 16.8625 22.502C18.3262 22.0296 19.6728 21.6752 20.2583 21.5571C20.6681 21.498 21.722 21.439 22.4831 21.439C24.0639 21.439 25.5276 22.0296 26.2302 22.9745C26.64 23.5061 26.8157 24.1557 26.64 24.8054C25.5276 30.298 12.0616 44 6.79227 44ZM10.4222 29.2349C9.60257 30.6524 8.89999 32.188 8.54871 33.9007C8.43161 34.4913 8.37306 35.0819 8.31451 35.6725C9.95386 34.4913 12.1201 32.7195 13.9351 30.4752C13.7595 30.5343 13.5253 30.5343 13.3496 30.5343C12.3543 30.5343 11.2419 30.0618 10.4222 29.2349Z" fill="white"/>
<path d="M6.7916 42.2283C4.50823 42.2283 2.04922 40.1021 1.87357 38.9209C1.63938 37.3263 1.75648 35.5544 2.16631 33.7236C3.63001 26.6363 12.0024 14.5289 21.897 14.5289C23.5949 14.5289 23.8876 16.0054 23.712 16.9504C23.5949 17.3638 23.1265 18.545 21.9555 18.545C21.7799 18.545 21.6628 18.486 21.5457 18.486C18.9696 18.486 8.89933 24.2148 6.9087 33.4873C6.61596 35.082 6.49886 36.7947 6.73306 38.6256C8.54804 38.035 14.9298 33.5464 17.7986 27.9356C16.7448 28.0538 15.2811 28.29 13.8174 28.6444C13.7003 28.7034 13.5246 28.7034 13.4075 28.7034C12.4122 28.7034 11.1242 27.6994 11.2413 26.7544C11.4169 26.0457 19.3209 23.5061 20.4918 23.3289C20.7846 23.2699 21.6043 23.2699 22.4825 23.2699C23.9462 23.2699 25.1171 23.9786 25 24.4511C23.9462 29.4122 11.0656 42.2283 6.7916 42.2283Z" fill="#1976D2"/>
<path d="M36.3584 40.3383C34.6019 40.3383 33.8993 39.2752 33.7237 38.8617C33.3724 38.2121 33.3724 37.4443 33.8408 32.3651C31.6745 32.7785 29.3911 33.1329 28.1031 33.3101C27.5762 33.9597 27.1078 34.6685 26.5808 35.4362C26.3466 35.7906 26.0539 36.204 25.8197 36.5584C25.1757 37.5034 24.4731 38.5664 22.3654 38.5664C21.7799 38.5664 20.3162 38.4483 19.3794 37.3262C18.8525 36.6174 18.6183 35.7315 18.8525 34.8456C19.6722 31.1248 33.3724 15.651 34.719 15.0013C36.0071 14.4107 37.705 13.9973 38.993 13.9973C40.7495 13.9973 42.0375 14.8832 42.3303 16.2416C43.0914 20.1987 42.2132 32.8966 41.452 36.3812C41.2178 37.4443 40.8666 38.2121 40.3982 38.6846C39.3443 39.6295 37.6464 40.3383 36.3584 40.3383Z" fill="white"/>
<path d="M39.7541 35.9087C39.637 36.6175 39.4028 37.0899 39.1686 37.3262C38.4661 37.9759 37.2366 38.5074 36.3583 38.5074C36.007 38.5074 35.4801 38.4483 35.2459 37.9759C34.9532 37.5034 35.7143 31.302 35.7729 30.1208C32.6698 30.8295 28.3958 31.4201 27.1077 31.5973C26.0539 32.7785 25.2342 34.1369 24.2974 35.4363C23.712 36.2631 23.4192 36.6765 22.3068 36.6765C21.4286 36.6765 20.2576 36.2631 20.4918 35.0819C21.1944 31.8926 34.4848 16.9504 35.4216 16.5369C36.5925 16.0054 37.9977 15.7101 38.993 15.7101C39.9298 15.7101 40.5152 16.0644 40.6323 16.5369C41.2764 20.0215 40.5152 32.3651 39.7541 35.9087ZM30.0937 27.7584C32.904 26.9316 34.8946 26.5772 35.9485 26.4591C36.1241 24.6282 36.8267 20.0215 36.5925 20.0806C36.4169 20.0215 32.9626 24.0967 30.0937 27.7584Z" fill="#1976D2"/>
<path d="M66.6862 39.7477C64.637 39.7477 62.3537 38.6255 62.1195 36.0859C62.0609 35.5544 62.178 35.0228 62.2951 34.5503C62.7049 32.7195 64.5199 27.345 66.5106 21.6752C65.2225 21.7933 63.6417 21.9114 63.1148 21.9114C60.1874 22.0886 55.0937 23.447 51.4052 24.8644C54.0398 25.5141 56.9087 26.3409 57.7869 26.9315C58.6651 27.5812 60.2459 29.8255 59.7775 32.1289C59.5434 33.251 58.8993 34.196 57.904 34.7866C56.2061 35.8497 48.8291 38.8027 46.8384 38.8027C45.3747 38.8027 43.2085 38.0349 42.2131 36.7946C41.6862 36.145 41.5106 35.3772 41.6862 34.6685C41.8033 34.1369 42.096 33.5463 42.5644 33.1329C43.267 32.4242 44.5551 32.0107 47.0141 31.3611C44.3794 30.7114 41.979 29.8255 40.8665 28.1718C40.164 26.9315 40.3982 25.455 40.5152 24.8054C40.808 23.5651 41.452 21.8524 42.8572 20.8483C45.2576 19.1356 54.7424 15.4738 62.4122 14.8832C62.5293 14.8832 62.822 14.8242 63.349 14.7651C65.9836 14.3517 72.2483 13.3477 77.5176 13.3477C78.6885 13.3477 80.3279 13.3477 82.1429 13.5248C83.1967 13.5839 84.1921 14.1154 84.8361 14.9423C85.363 15.651 85.5387 16.5369 85.363 17.4228C85.0703 18.604 84.1921 19.4899 83.0211 19.8443C82.4942 20.0215 81.9672 20.1396 81.5574 20.1396L81.2647 20.1987C79.6839 20.4349 78.1031 20.553 76.6394 20.6711C76.6394 20.6711 75.4684 20.7893 75.4099 20.7893C74.356 23.6242 71.4871 33.0738 70.9602 34.9047C70.3162 37.2671 70.082 37.7396 70.0234 37.9168C69.438 39.1571 67.9157 39.7477 66.6862 39.7477Z" fill="white"/>
<path d="M83.6651 17.0094C83.548 17.6 82.9625 18.0134 82.4942 18.1315C82.0258 18.3087 81.4988 18.3678 81.0305 18.4268C79.1569 18.6631 77.2248 18.8403 75.3513 19.0175C74.7073 19.0765 74.2389 19.0765 74.1803 19.1356C73.6534 19.7852 69.7307 32.8376 69.2623 34.3732C68.911 35.7315 68.5597 36.8537 68.4426 37.0899C68.267 37.5034 67.5059 37.9168 66.6862 37.9168C65.6909 37.9168 63.993 37.5034 63.8759 35.8497C63.8173 35.6134 63.9344 35.2591 63.993 34.9047C64.5199 32.3651 68.2084 22.1477 69.0867 19.6671C68.7939 19.6671 68.5012 19.7262 68.2084 19.7262C67.9743 19.7262 63.993 20.0805 63.0562 20.1396C58.548 20.3758 48.6534 23.506 46.1944 25.396C46.4286 25.5141 46.897 25.5732 47.4824 25.7503C49.1803 26.1047 55.7963 27.6403 56.733 28.349C57.26 28.7034 58.3138 30.357 58.0211 31.7745C57.904 32.306 57.6113 32.8966 56.9087 33.251C55.445 34.255 48.3607 37.0309 46.8384 37.0309C45.4333 37.0309 43.1499 35.9678 43.3841 35.0228C43.4426 34.7866 43.5597 34.6094 43.7354 34.4322C44.9063 33.251 53.63 31.9517 54.0984 31.0658C54.0398 31.0067 53.9813 31.0658 53.9227 31.0067C53.6885 30.9477 53.3958 30.8886 53.1031 30.8295C50.4098 30.0617 43.7939 29.4121 42.3302 27.1678C42.0375 26.6953 42.096 25.8685 42.2131 25.1597C42.4473 24.2148 42.9157 22.9154 43.8525 22.2067C46.0773 20.6711 55.3864 17.1275 62.5878 16.5369C63.4075 16.4779 71.2529 15.0013 77.5761 15.0013C78.9813 15.0013 80.3864 15.0604 82.0258 15.1785C82.904 15.2966 83.8993 16.0054 83.6651 17.0094Z" fill="#1976D2"/>
<path d="M80.5035 40.1611C78.9813 40.1611 77.6932 39.2161 77.2248 37.7987C76.5808 36.0269 77.3419 31.7745 77.6932 30.0618C77.9274 28.7624 78.3372 27.404 78.8056 26.1638C79.5082 24.2738 80.5035 21.9705 81.3817 20.0805C83.0796 16.655 83.8408 15.9463 84.7775 15.7101C89.8712 14.4698 95.2576 13.702 99.4731 13.702C101.112 13.702 103.396 13.8201 104.918 14.4108C109.895 16.4188 110.07 19.1356 109.778 20.6121C108.782 25.2188 98.4778 29.294 92.5059 31.302C95.6089 33.6644 95.3162 35.0228 95.1991 35.6134C94.7892 37.5624 92.2131 38.6255 90.5738 38.6255C88.993 38.6255 87.8806 37.7987 87.0609 37.2081L86.7682 36.9718C86.4169 36.7356 86.1241 36.4993 85.7728 36.204C85.363 35.9087 84.9532 35.6134 84.6019 35.3181C84.6019 35.4363 84.6019 35.4953 84.5433 35.6134C84.4848 36.204 84.3677 36.7356 84.3091 37.0899V37.2081C83.8993 38.9799 82.3185 40.1611 80.5035 40.1611ZM88.7002 21.8524C88.1733 22.8564 87.5293 24.2738 87.0023 25.6322C90.5738 24.5101 95.1405 22.502 98.3607 20.8483C95.2576 20.8483 91.452 21.3799 88.7002 21.8524Z" fill="white"/>
<path d="M88.349 30.7114C89.9297 31.5973 93.7354 33.9598 93.4426 35.2C93.267 36.0269 91.7447 36.7947 90.5152 36.7947C89.3443 36.7947 88.5831 36.0859 87.7049 35.4953C86.2412 34.4322 84.8361 33.251 83.1967 32.4242C82.904 33.8416 82.6698 35.9678 82.5527 36.7947C82.3185 37.7396 81.4988 38.3893 80.5035 38.3893C79.8009 38.3893 79.0984 37.9759 78.8642 37.2081C78.5129 36.2631 78.8056 33.192 79.3911 30.4161C79.6253 29.1168 80.0351 27.8765 80.3864 26.7544C81.6745 23.2108 84.2506 17.6 85.1288 17.3638C90.7494 15.9463 95.7846 15.4148 99.4145 15.4148C101.581 15.4148 103.279 15.651 104.215 16.0054C106.148 16.7732 108.431 18.1906 108.021 20.1987C107.084 24.6873 92.2717 29.5893 88.349 30.7114ZM98.9461 19.0175C95.3747 19.0175 90.6909 19.6671 87.5878 20.1987C86.4754 22.1477 84.9532 25.6322 84.3091 28.1128C89.4614 27.1678 101.405 21.7343 103.396 19.7262C102.752 19.3128 101.23 19.0175 98.9461 19.0175Z" fill="#1976D2"/>
<path d="M106.265 39.6295C102.927 39.6295 101.112 37.7986 100.527 36.0859V36.0268C100.41 35.6134 100 34.0188 100.468 31.6564C101.756 25.6322 108.021 19.1356 114.403 17.1866H114.461C115.164 17.0094 115.808 16.8913 116.569 16.8913C117.74 16.0644 119.087 15.9463 119.906 15.9463C120.785 15.9463 122.19 16.2416 123.244 17.1275C124.766 18.4859 125.293 20.553 124.707 23.3288C124.063 26.2819 122.19 29.7074 119.614 32.7194C116.803 36.0859 110.714 39.6295 106.265 39.6295ZM116.862 23.1517C116.335 23.447 115.808 23.7423 115.223 24.0966C112.002 26.1637 108.724 30.1208 107.904 32.8966C109.953 32.306 112.295 30.2389 113.876 28.4671C115.34 26.6362 116.393 24.5691 116.862 23.1517Z" fill="white"/>
<path d="M118.384 31.5973C115.867 34.4322 110.187 37.9168 106.323 37.9168C103.63 37.9168 102.576 36.4403 102.283 35.5544C102.166 35.141 101.932 33.8416 102.283 32.0698C103.454 26.6363 109.192 20.7302 114.988 18.9584C115.749 18.7812 116.452 18.6631 117.272 18.6631C117.974 17.8953 119.145 17.7181 119.965 17.7181C120.667 17.7181 121.604 18.0134 122.19 18.4859C123.419 19.549 123.361 21.4389 123.068 23.0336C122.482 25.6322 120.785 28.7624 118.384 31.5973ZM118.384 21.0846C118.15 20.9665 117.682 20.9074 117.447 20.8483C116.511 21.3799 115.515 21.8524 114.286 22.6202C110.831 24.8054 106.792 29.4712 106.03 33.0148C105.855 33.7826 105.679 34.8457 106.792 34.8457C109.836 34.8457 113.232 31.8336 115.105 29.6483C117.038 27.345 118.267 24.7463 118.677 23.0926C118.794 22.3249 118.852 21.3799 118.384 21.0846Z" fill="#1976D2"/>
</svg>
