<svg width="31" height="31" viewBox="0 0 31 31" fill="none" xmlns="http://www.w3.org/2000/svg">
<path d="M15.5 10C12.4613 10 10 12.4613 10 15.5C10 18.5387 12.4613 21 15.5 21C18.5387 21 21 18.5387 21 15.5C21 12.4613 18.5387 10 15.5 10ZM27.7925 14.125C27.481 11.3367 26.2307 8.73711 24.2468 6.7532C22.2629 4.76929 19.6633 3.51895 16.875 3.2075V0.375H14.125V3.2075C11.3367 3.51895 8.73711 4.76929 6.7532 6.7532C4.76929 8.73711 3.51895 11.3367 3.2075 14.125H0.375V16.875H3.2075C3.51895 19.6633 4.76929 22.2629 6.7532 24.2468C8.73711 26.2307 11.3367 27.481 14.125 27.7925V30.625H16.875V27.7925C19.6633 27.481 22.2629 26.2307 24.2468 24.2468C26.2307 22.2629 27.481 19.6633 27.7925 16.875H30.625V14.125H27.7925ZM15.5 25.125C10.1788 25.125 5.875 20.8212 5.875 15.5C5.875 10.1788 10.1788 5.875 15.5 5.875C20.8212 5.875 25.125 10.1788 25.125 15.5C25.125 20.8212 20.8212 25.125 15.5 25.125Z" fill="#707070"/>
</svg>
